<?xml version="1.0" encoding="UTF-8"?>
<!DOCTYPE svg PUBLIC "-//W3C//DTD SVG 1.1//EN" "http://www.w3.org/Graphics/SVG/1.1/DTD/svg11.dtd">
<!-- Creator: CorelDRAW -->
<svg xmlns="http://www.w3.org/2000/svg" xml:space="preserve" width="2048px" height="2048px" style="shape-rendering:geometricPrecision; text-rendering:geometricPrecision; image-rendering:optimizeQuality; fill-rule:evenodd; clip-rule:evenodd"
viewBox="0 0 2048 2048"
 xmlns:xlink="http://www.w3.org/1999/xlink">
 <defs>
  <style type="text/css">
   <![CDATA[
    .fil2 {fill:none}
    .fil3 {fill:#006064}
    .fil4 {fill:#00838F}
    .fil5 {fill:#0097A7}
    .fil1 {fill:#BDBDBD}
    .fil9 {fill:#BF360C}
    .fil0 {fill:#E0E0E0}
    .fil6 {fill:#F4511E}
    .fil8 {fill:#DD2C00;fill-rule:nonzero}
    .fil7 {fill:#FF3D00;fill-rule:nonzero}
   ]]>
  </style>
   <clipPath id="id0">
    <path d="M1024 0c565.538,0 1024,458.462 1024,1024 0,565.538 -458.462,1024 -1024,1024 -565.538,0 -1024,-458.462 -1024,-1024 0,-565.538 458.462,-1024 1024,-1024z"/>
   </clipPath>
 </defs>
 <g id="Layer_x0020_1">
  <metadata id="CorelCorpID_0Corel-Layer"/>
  <path class="fil0" d="M1024 0c565.538,0 1024,458.462 1024,1024 0,565.538 -458.462,1024 -1024,1024 -565.538,0 -1024,-458.462 -1024,-1024 0,-565.538 458.462,-1024 1024,-1024z"/>
  <g style="clip-path:url(#id0)">
   <g id="_385682608">
    <g>
     <polygon id="_2856572881" class="fil1" points="1377.67,814.918 2513.56,1894.27 2505.28,1885.65 2496.83,1877.27 2488.18,1869.11 2479.36,1861.17 2470.36,1853.47 2461.19,1846.01 2451.85,1838.78 2442.35,1831.78 2432.7,1825.03 2422.89,1818.53 2412.93,1812.27 2402.83,1806.26 2392.58,1800.49 2382.2,1794.99 2371.69,1789.73 2361.06,1784.74 2350.3,1780 2339.42,1775.53 2328.43,1771.32 2317.33,1767.38 2306.12,1763.71 2294.82,1760.31 2283.41,1757.18 2271.92,1754.33 2260.34,1751.76 2248.68,1749.47 2236.93,1747.47 2225.12,1745.75 2213.23,1744.32 2201.28,1743.18 2189.3,1742.33 2177.34,1741.78 2165.4,1741.53 2153.49,1741.57 2141.61,1741.9 2129.76,1742.52 2117.96,1743.43 2106.2,1744.63 2094.49,1746.11 2082.84,1747.87 2071.25,1749.92 2059.72,1752.26 2048.26,1754.87 2036.88,1757.76 2025.57,1760.92 2014.35,1764.36 2003.21,1768.08 1992.17,1772.07 1981.22,1776.33 1970.37,1780.86 1959.63,1785.65 1949.01,1790.72 1938.49,1796.05 1928.1,1801.64 1917.84,1807.5 1907.7,1813.61 1897.7,1819.99 1887.83,1826.62 1878.11,1833.51 1868.54,1840.65 1859.12,1848.05 1849.86,1855.7 1847.85,1857.41 1845.86,1859.13 1843.87,1860.87 1841.89,1862.61 1839.92,1864.37 1837.97,1866.13 1836.02,1867.91 1834.08,1869.7 1832.15,1871.5 1830.23,1873.31 1828.33,1875.13 1826.43,1876.96 1824.54,1878.8 1822.66,1880.64 1820.79,1882.5 1818.93,1884.37 1817.08,1886.25 1815.24,1888.13 1813.41,1890.03 1811.59,1891.93 1809.78,1893.84 1807.99,1895.77 1806.2,1897.7 1804.42,1899.64 1802.65,1901.59 1800.9,1903.55 1799.15,1905.52 1797.42,1907.5 1795.69,1909.49 1793.98,1911.49 1792.28,1913.5 1790.59,1915.52 654.704,836.166 656.396,834.148 658.099,832.14 659.813,830.142 661.536,828.153 663.271,826.173 665.017,824.202 666.773,822.242 668.54,820.29 670.317,818.347 672.104,816.415 673.903,814.492 675.71,812.579 677.529,810.675 679.358,808.781 681.195,806.896 683.044,805.021 684.904,803.153 686.775,801.295 688.655,799.445 690.545,797.606 692.444,795.777 694.353,793.958 696.271,792.148 698.2,790.349 700.138,788.561 702.086,786.784 704.043,785.017 706.01,783.262 707.989,781.517 709.975,779.783 711.973,778.062 713.98,776.352 723.242,768.702 732.66,761.305 742.231,754.16 751.952,747.271 761.815,740.638 771.818,734.262 781.955,728.147 792.221,722.291 802.613,716.698 813.126,711.369 823.753,706.304 834.492,701.507 845.337,696.978 856.285,692.718 867.328,688.73 878.464,685.014 889.688,681.572 900.995,678.406 912.381,675.515 923.84,672.905 935.369,670.574 946.961,668.525 958.613,666.758 970.32,665.275 982.078,664.078 993.882,663.169 1005.73,662.548 1017.61,662.217 1029.52,662.18 1041.46,662.434 1053.42,662.983 1065.4,663.828 1077.35,664.968 1089.24,666.399 1101.05,668.118 1112.79,670.123 1124.46,672.412 1136.04,674.982 1147.53,677.83 1158.93,680.956 1170.24,684.356 1181.45,688.028 1192.55,691.969 1203.54,696.178 1214.42,700.651 1225.17,705.387 1235.81,710.382 1246.32,715.635 1256.7,721.144 1266.94,726.906 1277.05,732.918 1287.01,739.179 1296.82,745.685 1306.47,752.435 1315.97,759.426 1325.31,766.656 1334.48,774.122 1343.48,781.823 1352.3,789.755 1360.94,797.917 1369.4,806.305 "/>
     <polygon id="_285656568" class="fil1" points="1442.88,753.676 2578.77,1833.03 2588.34,1843.49 2597.67,1854.22 2599.12,1856.01 2600.45,1857.85 2601.68,1859.74 2602.81,1861.67 2603.83,1863.65 2604.74,1865.65 2605.55,1867.69 2606.26,1869.76 2606.86,1871.84 2607.36,1873.95 2607.75,1876.08 2608.04,1878.21 2608.22,1880.36 2608.31,1882.5 2608.29,1884.65 2608.17,1886.79 2607.94,1888.92 2607.62,1891.04 2607.19,1893.15 2606.67,1895.23 2606.04,1897.3 2605.31,1899.33 2604.48,1901.33 2603.55,1903.3 2602.53,1905.22 2601.4,1907.1 2600.18,1908.94 2598.85,1910.72 2597.43,1912.44 2595.91,1914.11 2594.3,1915.71 2592.58,1917.25 2590.79,1918.7 2588.95,1920.04 2587.06,1921.27 2585.13,1922.4 2583.16,1923.42 2581.15,1924.34 2579.11,1925.15 2577.04,1925.86 2574.95,1926.46 2572.84,1926.95 2570.71,1927.35 2568.58,1927.64 2566.43,1927.83 2564.28,1927.91 2562.14,1927.89 2559.99,1927.77 2557.86,1927.55 2555.73,1927.22 2553.62,1926.79 2551.54,1926.26 2549.47,1925.64 2547.44,1924.91 2545.44,1924.08 2543.47,1923.15 2541.54,1922.12 2539.66,1920.99 2537.83,1919.77 2536.04,1918.44 2534.32,1917.02 2532.65,1915.49 2531.05,1913.88 1395.17,834.525 1396.77,836.144 1398.44,837.666 1400.16,839.09 1401.94,840.415 1403.78,841.642 1405.66,842.77 1407.59,843.799 1409.55,844.729 1411.56,845.558 1413.59,846.286 1415.66,846.915 1417.74,847.443 1419.85,847.87 1421.97,848.195 1424.11,848.418 1426.25,848.54 1428.4,848.559 1430.55,848.475 1432.7,848.288 1434.83,847.998 1436.96,847.605 1439.07,847.107 1441.16,846.505 1443.23,845.799 1445.27,844.987 1447.28,844.071 1449.25,843.049 1451.18,841.92 1453.07,840.687 1454.91,839.345 1456.7,837.898 1458.42,836.363 1460.03,834.76 1461.55,833.094 1462.97,831.368 1464.3,829.586 1465.52,827.753 1466.65,825.871 1467.67,823.946 1468.6,821.981 1469.43,819.98 1470.16,817.946 1470.78,815.885 1471.31,813.8 1471.74,811.694 1472.06,809.573 1472.29,807.44 1472.41,805.297 1472.43,803.151 1472.34,801.005 1472.16,798.862 1471.87,796.726 1471.47,794.603 1470.98,792.494 1470.38,790.406 1469.67,788.34 1468.86,786.302 1467.95,784.295 1466.93,782.324 1465.8,780.392 1464.57,778.503 1463.23,776.66 1461.79,774.87 1452.45,764.143 "/>
     <polygon id="_285657480" class="fil1" points="654.704,836.166 1790.59,1915.52 1789.07,1917.25 1787.48,1918.88 1785.83,1920.42 1784.11,1921.86 1782.34,1923.2 1780.52,1924.44 1778.65,1925.59 1776.73,1926.63 1774.77,1927.58 1772.77,1928.43 1770.75,1929.17 1768.69,1929.82 1766.61,1930.36 1764.5,1930.81 1762.38,1931.15 1760.25,1931.4 1758.11,1931.54 1755.96,1931.57 1753.81,1931.51 1751.66,1931.34 1749.52,1931.07 1747.39,1930.69 1745.28,1930.21 1743.18,1929.63 1741.11,1928.94 1739.06,1928.15 1737.05,1927.25 1735.07,1926.24 1733.12,1925.13 1731.22,1923.92 1729.37,1922.59 1727.57,1921.16 1725.84,1919.64 589.959,840.289 591.685,841.809 593.489,843.24 595.342,844.566 597.243,845.783 599.184,846.895 601.166,847.899 603.181,848.799 605.228,849.592 607.301,850.281 609.396,850.864 611.511,851.344 613.64,851.718 615.78,851.99 617.926,852.159 620.076,852.224 622.224,852.186 624.367,852.046 626.501,851.803 628.621,851.46 630.725,851.014 632.808,850.469 634.865,849.822 636.893,849.075 638.888,848.228 640.847,847.281 642.765,846.236 644.637,845.091 646.46,843.847 648.231,842.507 649.945,841.067 651.597,839.531 653.186,837.896 "/>
     <polygon id="_285657720" class="fil1" points="1304.53,875.829 2440.41,1955.18 2447.13,1962.18 2453.69,1969.35 2460.09,1976.71 2461.54,1978.5 2462.88,1980.34 2464.11,1982.23 2465.23,1984.16 2466.25,1986.13 2467.17,1988.14 2467.98,1990.18 2468.68,1992.24 2469.28,1994.33 2469.78,1996.44 2470.17,1998.57 2470.46,2000.7 2470.65,2002.84 2470.73,2004.99 2470.71,2007.14 2470.59,2009.28 2470.36,2011.41 2470.04,2013.53 2469.61,2015.64 2469.09,2017.72 2468.46,2019.79 2467.73,2021.82 2466.9,2023.82 2465.98,2025.78 2464.95,2027.71 2463.82,2029.59 2462.6,2031.43 2461.28,2033.21 2459.86,2034.93 2458.34,2036.6 2456.72,2038.2 2455.01,2039.74 1319.12,960.388 1320.84,958.853 1322.46,957.25 1323.97,955.583 1325.4,953.858 1326.72,952.076 1327.94,950.241 1329.07,948.36 1330.1,946.435 1331.02,944.469 1331.85,942.468 1332.58,940.436 1333.21,938.375 1333.73,936.289 1334.16,934.184 1334.48,932.062 1334.71,929.929 1334.83,927.786 1334.85,925.64 1334.76,923.494 1334.58,921.351 1334.29,919.216 1333.9,917.092 1333.4,914.984 1332.8,912.895 1332.09,910.829 1331.29,908.792 1330.37,906.785 1329.35,904.814 1328.23,902.881 1326.99,900.992 1325.66,899.15 1324.21,897.36 1317.81,890.004 1311.25,882.826 "/>
     <polygon id="_285657576" class="fil1" points="1240.85,938.659 2376.73,2018.01 2371.42,2012.74 2365.99,2007.62 2360.45,2002.64 2354.81,1997.81 2349.05,1993.12 2343.19,1988.58 2337.23,1984.2 2331.17,1979.96 2325.01,1975.88 2318.76,1971.95 2312.42,1968.17 2305.99,1964.56 2299.48,1961.1 2292.88,1957.8 2286.2,1954.67 2279.45,1951.69 2272.62,1948.89 2265.72,1946.25 2258.76,1943.77 2251.72,1941.47 2244.63,1939.33 2237.47,1937.37 2230.26,1935.58 2222.99,1933.97 2215.67,1932.54 2208.3,1931.28 2200.88,1930.2 2193.42,1929.3 2185.92,1928.58 1050.04,849.235 1057.54,849.95 1065,850.848 1072.41,851.926 1079.78,853.185 1087.11,854.622 1094.37,856.234 1101.59,858.022 1108.75,859.984 1115.84,862.118 1122.88,864.422 1129.84,866.896 1136.74,869.536 1143.57,872.344 1150.32,875.317 1157,878.453 1163.6,881.749 1170.11,885.206 1176.54,888.823 1182.88,892.596 1189.13,896.526 1195.29,900.61 1201.35,904.847 1207.31,909.235 1213.17,913.772 1218.93,918.459 1224.57,923.292 1230.11,928.272 1235.54,933.394 "/>
     <polygon id="_285657312" class="fil1" points="1319.12,960.388 2455.01,2039.74 2453.22,2041.19 2451.37,2042.53 2449.48,2043.76 2447.55,2044.89 2445.58,2045.91 2443.57,2046.83 2441.53,2047.64 2439.46,2048.34 2437.37,2048.95 2435.26,2049.44 2433.14,2049.84 2431,2050.13 2428.86,2050.31 2426.71,2050.4 2424.56,2050.38 2422.41,2050.26 2420.28,2050.03 2418.15,2049.71 2416.05,2049.28 2413.96,2048.75 2411.9,2048.13 2409.86,2047.4 2407.86,2046.57 2405.89,2045.64 2403.97,2044.61 2402.08,2043.48 2400.25,2042.25 2398.47,2040.93 2396.74,2039.5 2395.07,2037.98 1259.19,958.633 1260.86,960.154 1262.59,961.579 1264.37,962.904 1266.2,964.131 1268.08,965.259 1270.01,966.288 1271.98,967.217 1273.98,968.046 1276.02,968.775 1278.08,969.404 1280.17,969.931 1282.27,970.359 1284.4,970.684 1286.53,970.907 1288.68,971.029 1290.83,971.048 1292.98,970.964 1295.12,970.777 1297.26,970.488 1299.38,970.093 1301.49,969.596 1303.58,968.995 1305.65,968.289 1307.69,967.477 1309.7,966.561 1311.67,965.538 1313.6,964.41 1315.49,963.176 1317.33,961.835 "/>
     <polygon id="_285657432" class="fil1" points="1050.04,849.235 2185.92,1928.58 2178.4,1928.05 2170.89,1927.71 2163.4,1927.55 2155.93,1927.57 2148.47,1927.78 2141.04,1928.17 2133.63,1928.74 2126.25,1929.49 2118.91,1930.42 2111.6,1931.53 2104.32,1932.81 2097.09,1934.28 2089.9,1935.91 2082.75,1937.73 2075.66,1939.71 2068.62,1941.87 2061.63,1944.2 2054.7,1946.7 2047.83,1949.38 2041.02,1952.22 2034.29,1955.23 2027.62,1958.4 2021.02,1961.75 2014.5,1965.26 2008.06,1968.93 2001.7,1972.77 1995.42,1976.77 1989.23,1980.93 1983.13,1985.25 1977.12,1989.74 1971.21,1994.38 1965.4,1999.18 829.521,919.83 835.333,915.03 841.243,910.387 847.25,905.904 853.349,901.581 859.538,897.419 865.816,893.418 872.177,889.581 878.619,885.907 885.14,882.398 891.737,879.054 898.405,875.877 905.143,872.867 911.949,870.025 918.818,867.354 925.748,864.851 932.735,862.52 939.778,860.361 946.873,858.375 954.017,856.562 961.207,854.925 968.441,853.463 975.714,852.177 983.026,851.069 990.373,850.139 997.75,849.389 1005.16,848.819 1012.59,848.43 1020.04,848.223 1027.52,848.199 1035.01,848.359 1042.52,848.704 "/>
     <polygon id="_285657672" class="fil1" points="829.521,919.83 1965.4,1999.18 1964.14,2000.26 1962.88,2001.34 1961.64,2002.43 1960.39,2003.53 1959.16,2004.63 1957.93,2005.74 1956.71,2006.86 1955.49,2007.99 1954.28,2009.12 1953.07,2010.26 1951.87,2011.4 1950.68,2012.55 1949.49,2013.71 1948.31,2014.87 1947.14,2016.04 1945.97,2017.22 810.086,937.866 811.255,936.692 812.43,935.522 813.611,934.36 814.798,933.203 815.991,932.051 817.19,930.907 818.396,929.768 819.607,928.635 820.824,927.51 822.047,926.391 823.277,925.28 824.513,924.176 825.755,923.078 827.004,921.988 828.259,920.905 "/>
     <polygon id="_285658704" class="fil1" points="810.086,937.866 1945.97,2017.22 1944.81,2018.39 1943.65,2019.58 1942.5,2020.76 1941.36,2021.96 1940.23,2023.16 1939.1,2024.36 1937.97,2025.58 1936.85,2026.8 1935.74,2028.02 1934.64,2029.25 1933.54,2030.49 1932.45,2031.73 1931.37,2032.98 1930.29,2034.23 1929.23,2035.49 1928.16,2036.76 792.283,957.408 793.345,956.142 794.414,954.882 795.49,953.628 796.573,952.379 797.663,951.137 798.76,949.901 799.863,948.67 800.973,947.446 802.091,946.228 803.214,945.015 804.344,943.809 805.481,942.608 806.623,941.414 807.771,940.226 808.926,939.042 "/>
     <polygon id="_285658248" class="fil1" points="792.283,957.408 1928.16,2036.76 1926.65,2038.49 1925.06,2040.12 1923.4,2041.66 1921.69,2043.1 1919.92,2044.44 1918.1,2045.68 1916.22,2046.83 1914.31,2047.87 1912.35,2048.82 1910.35,2049.67 1908.32,2050.41 1906.27,2051.06 1904.18,2051.61 1902.08,2052.05 1899.96,2052.39 1897.83,2052.64 1895.68,2052.78 1893.53,2052.81 1891.38,2052.75 1889.24,2052.58 1887.1,2052.31 1884.97,2051.94 1882.85,2051.46 1880.76,2050.87 1878.69,2050.18 1876.64,2049.39 1874.62,2048.49 1872.64,2047.49 1870.7,2046.37 1868.8,2045.16 1866.95,2043.83 1865.14,2042.4 1863.42,2040.88 727.536,961.53 729.263,963.05 731.065,964.482 732.919,965.807 734.819,967.025 736.762,968.136 738.742,969.14 740.758,970.04 742.805,970.834 744.878,971.522 746.973,972.106 749.088,972.585 751.217,972.96 753.357,973.231 755.503,973.399 757.653,973.464 759.801,973.426 761.944,973.287 764.078,973.045 766.198,972.701 768.302,972.256 770.385,971.71 772.443,971.063 774.471,970.316 776.466,969.47 778.425,968.522 780.342,967.477 782.214,966.333 784.038,965.09 785.809,963.748 787.523,962.309 789.175,960.772 790.764,959.139 "/>
     <polygon id="_285658200" class="fil1" points="1177.43,1000.35 2313.31,2079.7 2314.04,2080.46 2314.76,2081.23 2315.47,2082 2316.18,2082.78 2316.89,2083.55 2317.6,2084.33 2318.32,2085.1 2319.03,2085.87 1183.15,1006.52 1182.43,1005.75 1181.72,1004.98 1181.01,1004.2 1180.3,1003.43 1179.59,1002.65 1178.88,1001.88 1178.16,1001.11 "/>
     <polygon id="_285658632" class="fil1" points="1183.15,1006.52 2319.03,2085.87 2320.8,2087.85 2322.45,2089.9 2323.99,2092.02 2325.42,2094.21 2326.73,2096.46 2327.93,2098.76 2329.01,2101.11 2329.97,2103.51 2330.81,2105.94 2331.53,2108.39 2332.13,2110.88 2332.61,2113.38 2332.96,2115.89 2333.19,2118.41 2333.29,2120.93 2333.26,2123.45 2333.11,2125.95 2332.82,2128.44 2332.4,2130.9 2331.86,2133.34 2331.17,2135.74 2330.36,2138.1 2329.41,2140.41 2328.32,2142.67 2327.09,2144.87 2325.73,2147.01 2324.22,2149.07 2322.58,2151.06 2320.79,2152.97 2318.86,2154.79 2316.78,2156.52 2314.56,2158.15 1178.68,1078.8 1180.9,1077.17 1182.98,1075.44 1184.91,1073.62 1186.7,1071.71 1188.34,1069.72 1189.85,1067.66 1191.21,1065.52 1192.44,1063.32 1193.53,1061.06 1194.48,1058.75 1195.29,1056.39 1195.97,1053.99 1196.52,1051.55 1196.94,1049.09 1197.22,1046.6 1197.38,1044.1 1197.41,1041.58 1197.31,1039.06 1197.08,1036.54 1196.73,1034.03 1196.25,1031.53 1195.65,1029.04 1194.93,1026.59 1194.09,1024.16 1193.13,1021.76 1192.05,1019.41 1190.85,1017.11 1189.54,1014.86 1188.11,1012.67 1186.57,1010.55 1184.92,1008.5 "/>
     <polygon id="_285658080" class="fil1" points="1110.31,1059.95 2246.19,2139.3 2244.03,2137.32 2241.84,2135.38 2239.61,2133.5 2237.34,2131.67 2235.04,2129.89 2232.7,2128.16 2230.32,2126.49 2227.92,2124.87 2225.47,2123.31 2223,2121.81 2220.49,2120.36 2217.96,2118.97 2215.39,2117.64 2212.79,2116.37 2210.17,2115.16 2207.52,2114.02 2204.84,2112.93 2202.13,2111.91 2199.4,2110.95 2196.65,2110.05 2193.87,2109.22 2191.07,2108.46 2188.24,2107.76 2185.4,2107.13 2182.53,2106.57 2179.64,2106.07 2176.74,2105.65 2173.81,2105.3 2170.87,2105.02 1034.99,1025.67 1037.93,1025.95 1040.86,1026.3 1043.76,1026.72 1046.65,1027.22 1049.52,1027.78 1052.36,1028.41 1055.18,1029.11 1057.99,1029.87 1060.77,1030.7 1063.52,1031.6 1066.25,1032.56 1068.96,1033.58 1071.64,1034.67 1074.29,1035.81 1076.91,1037.02 1079.51,1038.29 1082.08,1039.62 1084.61,1041.01 1087.12,1042.46 1089.59,1043.96 1092.03,1045.52 1094.44,1047.14 1096.82,1048.81 1099.16,1050.54 1101.46,1052.32 1103.73,1054.15 1105.96,1056.03 1108.15,1057.96 "/>
     <polygon id="_285658320" class="fil1" points="1178.68,1078.8 2314.56,2158.15 2312.54,2159.45 2310.51,2160.62 2308.46,2161.65 2306.39,2162.54 2304.32,2163.3 2302.25,2163.93 2300.16,2164.44 2298.07,2164.82 2295.98,2165.08 2293.9,2165.23 2291.81,2165.26 2289.73,2165.19 2287.66,2165 2285.59,2164.72 2283.54,2164.33 2281.5,2163.85 2279.48,2163.27 2277.47,2162.6 2275.48,2161.85 2273.52,2161.01 2271.58,2160.09 2269.66,2159.09 2267.78,2158.02 2265.92,2156.88 2264.1,2155.67 2262.31,2154.39 2260.55,2153.05 2258.84,2151.66 2257.17,2150.2 2255.54,2148.7 1119.65,1069.35 1121.29,1070.85 1122.96,1072.31 1124.67,1073.7 1126.43,1075.04 1128.22,1076.32 1130.04,1077.53 1131.9,1078.67 1133.78,1079.74 1135.7,1080.74 1137.64,1081.66 1139.6,1082.5 1141.59,1083.25 1143.6,1083.92 1145.62,1084.5 1147.66,1084.98 1149.71,1085.37 1151.78,1085.65 1153.85,1085.84 1155.93,1085.91 1158.02,1085.88 1160.1,1085.73 1162.19,1085.47 1164.28,1085.09 1166.36,1084.58 1168.44,1083.95 1170.51,1083.19 1172.58,1082.3 1174.62,1081.27 1176.66,1080.1 "/>
     <polygon id="_285658608" class="fil1" points="1034.99,1025.67 2170.87,2105.02 2167.99,2104.81 2165.09,2104.65 2162.18,2104.55 2159.25,2104.5 2156.32,2104.51 2153.39,2104.58 2150.45,2104.71 2147.52,2104.91 2144.59,2105.16 2141.66,2105.48 2138.74,2105.87 2135.83,2106.32 2132.94,2106.84 2130.06,2107.43 2127.2,2108.09 2124.36,2108.82 2121.54,2109.63 2118.76,2110.51 2115.99,2111.46 2113.27,2112.5 2110.57,2113.61 2107.91,2114.8 2105.3,2116.07 2102.72,2117.42 2100.19,2118.86 2097.7,2120.38 2095.26,2121.99 2092.88,2123.68 2090.55,2125.47 2088.28,2127.34 2086.07,2129.3 2083.92,2131.36 948.039,1052.01 950.188,1049.95 952.399,1047.99 954.67,1046.11 957,1044.33 959.383,1042.64 961.818,1041.03 964.305,1039.51 966.837,1038.07 969.414,1036.72 972.033,1035.45 974.69,1034.26 977.384,1033.15 980.114,1032.11 982.874,1031.16 985.663,1030.28 988.478,1029.47 991.317,1028.74 994.177,1028.08 997.055,1027.49 999.95,1026.97 1002.86,1026.52 1005.78,1026.13 1008.7,1025.81 1011.64,1025.56 1014.57,1025.36 1017.51,1025.23 1020.44,1025.16 1023.37,1025.15 1026.29,1025.2 1029.21,1025.3 1032.11,1025.46 "/>
     <polygon id="_285658488" class="fil1" points="948.039,1052.01 2083.92,2131.36 2083.67,2131.61 947.786,1052.26 "/>
     <polygon id="_285658512" class="fil1" points="947.786,1052.26 2083.67,2131.61 2082.87,2132.37 946.987,1053.02 "/>
     <polygon id="_285658920" class="fil1" points="946.987,1053.02 2082.87,2132.37 2082.07,2133.09 946.189,1053.74 "/>
     <polygon id="_285658968" class="fil1" points="946.189,1053.74 2082.07,2133.09 2081.79,2133.34 945.905,1053.99 "/>
     <polygon id="_285658896" class="fil1" points="945.905,1053.99 2081.79,2133.34 2077.06,2137.45 941.175,1058.1 "/>
     <polygon id="_285659016" class="fil1" points="941.175,1058.1 2077.06,2137.45 2076.58,2137.89 2076.11,2138.34 2075.64,2138.8 2075.18,2139.25 2074.71,2139.71 2074.25,2140.16 2073.79,2140.62 2073.33,2141.08 937.45,1061.73 937.908,1061.27 938.369,1060.81 938.831,1060.36 939.295,1059.9 939.763,1059.45 940.23,1058.99 940.702,1058.54 "/>
     <polygon id="_285659112" class="fil1" points="937.45,1061.73 2073.33,2141.08 2072.39,2142.04 2071.45,2143.01 2070.53,2143.99 2069.61,2144.98 2068.7,2145.97 2067.81,2146.98 2066.93,2148 2066.06,2149.03 930.178,1069.68 931.047,1068.65 931.928,1067.63 932.824,1066.62 933.728,1065.63 934.645,1064.64 935.572,1063.66 936.506,1062.69 "/>
     <polygon id="_285627024" class="fil1" points="930.178,1069.68 2066.06,2149.03 2064.54,2150.76 2062.95,2152.39 2061.3,2153.93 2059.59,2155.37 2057.81,2156.71 2055.99,2157.95 2054.12,2159.1 2052.2,2160.14 2050.24,2161.09 2048.25,2161.93 2046.22,2162.68 2044.16,2163.33 2042.08,2163.87 2039.98,2164.32 2037.86,2164.66 2035.72,2164.9 2033.58,2165.04 2031.43,2165.08 2029.28,2165.02 2027.13,2164.85 2024.99,2164.58 2022.87,2164.2 2020.75,2163.72 2018.66,2163.14 2016.58,2162.45 2014.54,2161.66 2012.52,2160.76 2010.54,2159.75 2008.6,2158.64 2006.7,2157.42 2004.84,2156.1 2003.04,2154.67 867.16,1075.32 868.962,1076.75 870.817,1078.07 872.716,1079.29 874.659,1080.4 876.64,1081.41 878.656,1082.31 880.701,1083.1 882.774,1083.79 884.871,1084.37 886.985,1084.85 889.113,1085.23 891.253,1085.5 893.4,1085.67 895.549,1085.73 897.698,1085.69 899.84,1085.55 901.974,1085.31 904.094,1084.97 906.198,1084.52 908.28,1083.98 910.338,1083.33 912.366,1082.58 914.362,1081.74 916.32,1080.79 918.237,1079.75 920.11,1078.6 921.934,1077.36 923.704,1076.02 925.418,1074.58 927.07,1073.04 928.659,1071.41 "/>
     <polygon id="_285626688" class="fil1" points="867.16,1075.32 2003.04,2154.67 2001.33,2153.16 865.45,1073.81 "/>
     <polygon id="_285626760" class="fil1" points="1174.04,996.924 2309.92,2076.27 2313.31,2079.7 1177.43,1000.35 "/>
     <polygon id="_285627048" class="fil1" points="485.754,1222.56 1621.63,2301.91 1619.97,2301.85 484.091,1222.5 "/>
     <polygon id="_285627072" class="fil1" points="465.513,1172.97 1601.39,2252.32 1601.31,2252.35 465.433,1173 "/>
     <polygon id="_285626808" class="fil1" points="796.511,1259.69 1932.39,2339.04 1629.84,2327.44 493.963,1248.09 "/>
     <polygon id="_285627120" class="fil1" points="796.616,1259.2 1932.5,2338.55 1932.66,2339.65 796.782,1260.3 "/>
     <polygon id="_285627240" class="fil1" points="786.745,1163.85 1922.63,2243.2 1923.96,2244.45 1925.18,2245.79 1926.29,2247.23 1927.28,2248.75 1928.14,2250.34 1928.88,2252 1929.47,2253.72 1929.93,2255.5 1930.25,2257.31 1930.41,2259.16 1930.41,2261.04 1930.26,2262.94 794.379,1183.59 794.533,1181.69 794.527,1179.81 794.364,1177.96 794.051,1176.15 793.593,1174.37 792.994,1172.65 792.26,1170.99 791.396,1169.4 790.407,1167.88 789.299,1166.44 788.077,1165.1 "/>
     <polygon id="_285627216" class="fil1" points="794.379,1183.59 1930.26,2262.94 1929.35,2281.99 793.471,1202.64 "/>
     <polygon id="_285627288" class="fil1" points="793.471,1202.64 1929.35,2281.99 1929.26,2283.9 1929.17,2285.7 1929.09,2287.4 1929,2289.01 1928.92,2290.55 1928.84,2292.04 1928.77,2293.49 1928.69,2294.9 792.808,1215.55 792.884,1214.14 792.962,1212.69 793.04,1211.2 793.121,1209.66 793.204,1208.05 793.29,1206.35 793.379,1204.55 "/>
     <polygon id="_285627648" class="fil1" points="792.808,1215.55 1928.69,2294.9 1928.63,2296 1928.57,2297.09 1928.51,2298.16 1928.46,2299.22 1928.41,2300.27 1928.35,2301.3 1928.3,2302.33 1928.26,2303.34 1928.21,2304.34 1928.17,2305.32 1928.13,2306.3 1928.09,2307.27 1928.06,2308.22 1928.03,2309.16 1928.01,2310.09 1927.99,2311.01 792.107,1231.66 792.127,1230.74 792.152,1229.81 792.181,1228.87 792.213,1227.92 792.249,1226.95 792.288,1225.97 792.33,1224.99 792.375,1223.99 792.422,1222.98 792.473,1221.95 792.525,1220.92 792.578,1219.87 792.634,1218.81 792.692,1217.74 792.749,1216.65 "/>
     <polygon id="_285627576" class="fil1" points="792.107,1231.66 1927.99,2311.01 1984.88,2416.96 849.002,1337.61 "/>
     <polygon id="_285627696" class="fil1" points="1214.44,1351.24 2350.32,2430.59 1975.74,2452.71 839.854,1373.36 "/>
     <polygon id="_285627888" class="fil1" points="1567.07,1143.33 2702.95,2222.68 2702.93,2222.68 2702.91,2222.69 2702.9,2222.69 2702.88,2222.7 2702.86,2222.7 2702.84,2222.71 2702.82,2222.71 2702.81,2222.72 1566.92,1143.37 1566.94,1143.36 1566.96,1143.36 1566.98,1143.35 1567,1143.35 1567.02,1143.34 1567.03,1143.34 1567.05,1143.33 "/>
     <polygon id="_285627552" class="fil1" points="1577.5,1149.35 2713.39,2228.7 2714.74,2230.2 2715.95,2231.8 2717.01,2233.51 2717.92,2235.31 2718.66,2237.19 2719.24,2239.15 2719.64,2241.16 2719.85,2243.23 2719.86,2245.34 2719.68,2247.48 1583.8,1168.13 1583.98,1165.99 1583.97,1163.88 1583.76,1161.81 1583.36,1159.79 1582.78,1157.84 1582.04,1155.96 1581.13,1154.16 1580.06,1152.45 1578.85,1150.85 "/>
     <polygon id="_285627936" class="fil1" points="1583.8,1168.13 2719.68,2247.48 2719.54,2248.37 2719.37,2249.24 2719.16,2250.1 2718.93,2250.95 2718.66,2251.79 2718.36,2252.6 2718.03,2253.4 2717.67,2254.18 1581.79,1174.83 1582.15,1174.05 1582.48,1173.25 1582.78,1172.44 1583.05,1171.6 1583.28,1170.75 1583.49,1169.89 1583.66,1169.02 "/>
     <polygon id="_285627504" class="fil1" points="1581.79,1174.83 2717.67,2254.18 2701.29,2297.85 1565.41,1218.5 "/>
     <polygon id="_285627864" class="fil1" points="1565.41,1218.5 2701.29,2297.85 2701,2299.28 2700.57,2300.97 2700.03,2302.87 2699.4,2304.93 2698.69,2307.11 2697.94,2309.37 2697.15,2311.65 2696.35,2313.91 2695.56,2316.11 2694.8,2318.19 2694.09,2320.11 2693.45,2321.83 2692.9,2323.3 2692.45,2324.47 2692.13,2325.29 2691.97,2325.73 1556.09,1246.38 1556.25,1245.94 1556.57,1245.12 1557.01,1243.95 1557.57,1242.48 1558.21,1240.76 1558.92,1238.84 1559.68,1236.76 1560.47,1234.56 1561.27,1232.3 1562.06,1230.02 1562.81,1227.76 1563.52,1225.58 1564.15,1223.52 1564.69,1221.62 1565.12,1219.93 "/>
     <polygon id="_285628032" class="fil1" points="1556.09,1246.38 2691.97,2325.73 2690.82,2325.77 1554.94,1246.42 "/>
     <polygon id="_285628656" class="fil1" points="1257.31,1234.02 2393.19,2313.37 2391.81,2313.43 1255.93,1234.08 "/>
     <polygon id="_285628560" class="fil1" points="1253.55,1181.92 2389.43,2261.27 2389.36,2261.27 1253.48,1181.92 "/>
     <polygon id="_285628488" class="fil1" points="1554.94,1246.42 2690.82,2325.77 2389.54,2337.33 1253.66,1257.98 "/>
    </g>
    <path id="_385683064" class="fil1" d="M656.084 708.159c116.105,-98.3257 265.16,-146.093 416.768,-133.521 151.403,12.5539 290.625,84.4359 388.938,200.232 15.9732,18.815 13.7091,47.028 -5.08819,63.0284 -18.8091,16.0099 -47.08,13.741 -63.0686,-5.09056 -82.9926,-97.7516 -200.426,-158.381 -328.233,-168.979 -127.86,-10.6016 -253.494,29.5878 -351.42,112.524 -10.7327,9.08859 -21.0378,18.6815 -30.9366,28.6689 -9.88347,9.97324 -19.3465,20.3622 -28.3394,31.1445 -15.8232,18.9768 -44.0705,21.489 -63.0189,5.64331 -18.9331,-15.8339 -21.4429,-44.0233 -5.63859,-62.9741 10.6417,-12.7618 21.7748,-25.1244 33.4725,-36.9272 11.6787,-11.785 23.9055,-23.0268 36.5646,-33.7488zm115.541 143.478c79.6323,-67.4375 181.879,-100.215 285.861,-91.5946 103.823,8.61024 199.309,57.9107 266.726,137.317 15.9721,18.8138 13.7091,47.0268 -5.08819,63.0284 -18.8091,16.0087 -47.0788,13.7398 -63.0686,-5.09174 -52.0949,-61.3619 -125.793,-99.4099 -206.021,-106.062 -80.2359,-6.65315 -159.059,18.5492 -220.514,70.5957 -6.74646,5.71182 -13.213,11.7579 -19.4351,18.0354 -6.20434,6.25985 -12.1595,12.7736 -17.8028,19.5425 -15.8244,18.9744 -44.0729,21.4878 -63.0201,5.64213 -18.9331,-15.8339 -21.4417,-44.0233 -5.63741,-62.9741 7.29449,-8.74843 14.9173,-17.2335 22.937,-25.3252 8.00197,-8.07402 16.389,-15.7677 25.063,-23.1142zm405.803 148.717c1.95236,2.01851 3.79961,4.12323 5.72363,6.16654 19.4232,20.6327 20.0067,55.48 -4.47166,72.2753 -21.4512,14.7165 -45.9957,4.69134 -62.1508,-12.6 -21.4689,-22.9748 -50.0729,-37.9193 -81.5386,-40.5284 -30.6792,-2.5441 -64.3725,3.91418 -86.9528,26.3386l-0.252756 0.251575 -0.798426 0.761812 -0.798426 0.725197 -0.283465 0.248032 -4.73032 4.10433c-1.26496,1.18937 -2.5063,2.40473 -3.7252,3.63544 -2.5252,2.54882 -4.97363,5.18859 -7.27205,7.94528 -15.8244,18.9709 -44.0705,21.4854 -63.0178,5.63977 -9.35552,-7.82481 -14.928,-18.9366 -16.1032,-30.391 -2.89016,-28.1516 10.9311,-38.5418 37.0772,-59.8489 42.0863,-34.2957 101.913,-52.9465 154.309,-48.6024 51.3307,4.25552 99.1702,26.837 134.986,63.8788zm-380.812 258.849l0.165354 1.0937 -0.270473 -0.61063 -302.548 -11.6008 -0.943702 -2.93386 -7.26615 -22.5886 -1.66299 -0.0637796 -18.5776 -49.5307 -0.080315 0.0295276c-4.23544,-11.2961 1.23662,-23.8571 12.2528,-28.5059 0.282284,-0.119291 0.568111,-0.232677 0.857481,-0.341339 2.31378,-0.86693 4.68189,-1.32638 7.02284,-1.41614 47.7898,-5.13544 95.8619,-6.38504 144.207,-3.73111 48.9367,2.68701 97.9702,9.3378 147.095,19.9689l0.011811 -0.0200788c1.23071,0.265748 2.41536,0.629528 3.54922,1.07835 9.38623,3.72284 15.2114,13.4008 13.9512,23.5571l-0.908268 19.0559c-0.250394,5.24174 -0.461811,9.16536 -0.662599,12.9071 -0.317717,5.89252 -0.603544,11.2347 -0.701575,16.1091l56.8949 105.953 365.437 13.6299 -374.585 22.1173 -43.2378 -114.157zm689.354 -122.632c23.3658,0.68504 46.6878,2.43898 69.965,5.30197 2.48504,0.264567 4.97599,0.536221 7.4752,0.81378l0.00944883 -0.0200788c1.25315,0.121654 2.47087,0.344882 3.64843,0.659056 -0.0472441,0.0129921 -0.0956694,0.0259843 -0.144095,0.0389764 10.9973,2.6811 18.4181,13.291 16.8721,24.7595 -0.32126,2.39173 -1.01457,4.6441 -2.00551,6.70867l-16.3795 43.6701c-1.19055,6.85394 -8.87127,26.6729 -9.32481,27.8764l-1.14685 0.0437008 -301.277 11.5524 0.230315 -1.51063 3.41339 -22.4421 -1.37599 0.0531496c-0.0366142,-5.51339 -0.364961,-11.6433 -0.734646,-18.5256 -0.200788,-3.74174 -0.412205,-7.66536 -0.661418,-12.9071l-0.988583 -20.7272 -0.0637796 0.00354331c-0.548032,-11.5075 7.68544,-21.3992 18.7984,-23.1851 48.7878,-11.2335 97.4434,-18.4087 145.951,-21.1902 5.93268,-0.340158 11.863,-0.614174 17.791,-0.822048 16.6701,-0.583465 33.3201,-0.637796 49.9477,-0.151181z"/>
   </g>
  </g>
  <path class="fil2" d="M1024 0c565.538,0 1024,458.462 1024,1024 0,565.538 -458.462,1024 -1024,1024 -565.538,0 -1024,-458.462 -1024,-1024 0,-565.538 458.462,-1024 1024,-1024z"/>
  <path class="fil3" d="M586.047 778.835c10.6417,-12.7618 21.7748,-25.1244 33.4725,-36.9272 11.6787,-11.785 23.9043,-23.0256 36.5646,-33.7477 116.105,-98.3268 265.16,-146.094 416.768,-133.523 151.403,12.5539 290.625,84.4359 388.938,200.232 15.9721,18.8138 13.7091,47.028 -5.08819,63.0284 -18.8091,16.0099 -47.08,13.741 -63.0686,-5.09174 -82.9926,-97.7505 -200.426,-158.38 -328.233,-168.978 -127.86,-10.6016 -253.493,29.589 -351.421,112.524 -10.7315,9.08859 -21.0378,18.6815 -30.9355,28.6701 -9.88229,9.97205 -19.3477,20.361 -28.3394,31.1445 -15.8221,18.9756 -44.0717,21.4878 -63.0189,5.64213 -18.9343,-15.8339 -21.4417,-44.0233 -5.63859,-62.9741z"/>
  <path class="fil4" d="M723.624 900.076c7.29567,-8.74843 14.9185,-17.2335 22.9382,-25.3252 8.00197,-8.07402 16.389,-15.7677 25.0642,-23.1142 79.6312,-67.4363 181.878,-100.215 285.86,-91.5934 103.824,8.60788 199.309,57.9095 266.726,137.315 15.9732,18.815 13.7091,47.0292 -5.08819,63.0296 -18.8091,16.0087 -47.08,13.7398 -63.0686,-5.09174 -52.0961,-61.3607 -125.793,-99.4099 -206.021,-106.062 -80.2359,-6.65315 -159.059,18.5492 -220.514,70.5957 -6.74528,5.71182 -13.213,11.7579 -19.4351,18.0354 -6.20434,6.25985 -12.1583,12.7736 -17.804,19.5437 -15.8232,18.9744 -44.0717,21.4866 -63.0189,5.64095 -18.9331,-15.8339 -21.4417,-44.0233 -5.63859,-62.9741z"/>
  <path class="fil5" d="M1042.44 936.476c51.3307,4.25552 99.1702,26.837 134.986,63.8788 1.95236,2.01851 3.80079,4.12323 5.72363,6.16654 19.4232,20.6327 20.0067,55.4811 -4.47284,72.2753 -21.45,14.7165 -45.9945,4.69134 -62.1497,-12.6 -21.4689,-22.976 -50.0729,-37.9193 -81.5386,-40.5284 -30.6792,-2.5441 -64.3725,3.91418 -86.9528,26.3386l-0.252756 0.251575 -0.797245 0.761812 -0.799607 0.725197 -0.283465 0.248032 -4.73032 4.10433c-1.26496,1.18937 -2.50512,2.40473 -3.7252,3.63544 -2.5252,2.54882 -4.97363,5.18859 -7.27205,7.9441 -15.8244,18.9732 -44.0705,21.4866 -63.0178,5.64095 -9.35552,-7.82481 -14.928,-18.9366 -16.1032,-30.391 -2.89016,-28.1516 10.9311,-38.5406 37.0772,-59.8489 42.0851,-34.2957 101.913,-52.9465 154.309,-48.6024z"/>
  <path class="fil6" d="M1556.09 1246.38c0.548032,-1.46102 11.7236,-30.2847 9.07087,-30.1866l-306.93 11.7685 -4.56615 30.013 302.425 -11.5949z"/>
  <path class="fil6" d="M796.782 1260.3l-4.34055 -28.624 -307.55 -11.791 9.07205 28.2036 302.549 11.6008c0.0874016,0.205512 0.177165,0.408662 0.269292,0.61063z"/>
  <path class="fil7" d="M1255.93 1234.08c-0.0354331,-5.51339 -0.36378,-11.6445 -0.733465,-18.5268 -0.200788,-3.74174 -0.412205,-7.66418 -0.661418,-12.9059l-0.988583 -20.7272 -0.0637796 0.00354331c-0.548032,-11.5063 7.68544,-21.3992 18.7973,-23.1851 48.789,-11.2335 97.4446,-18.4087 145.952,-21.1902 48.9674,-2.80866 97.7516,-1.11024 146.335,5.44134l-2.9752 22.1433 2.99528 -22.2047c12.2622,1.65354 20.8618,12.9366 19.2095,25.2 -0.322441,2.39173 -1.01339,4.64528 -2.00551,6.70867l-17.8004 47.4626c-0.355512,-0.00708662 -0.713386,-0.00354331 -1.0748,0.00944883l-306.986 11.7709z"/>
  <path class="fil7" d="M484.091 1222.5l-18.5776 -49.5319 -0.080315 0.0295276c-4.3441,-11.5854 1.5248,-24.502 13.1102,-28.8473 2.31378,-0.86693 4.68189,-1.32638 7.02284,-1.41614 47.791,-5.13544 95.8619,-6.38504 144.207,-3.73111 48.9378,2.68701 97.9702,9.3378 147.095,19.9689l0.011811 -0.0200788c11.426,2.47205 18.913,13.2532 17.5004,24.6355l-0.908268 19.0559c-0.250394,5.24174 -0.461811,9.16418 -0.662599,12.9059 -0.375591,6.98032 -0.707481,13.187 -0.735827,18.7583l-307.982 -11.8075z"/>
  <path class="fil8" d="M1479 1417.68c-154.523,38.439 -304.791,57.6615 -454.996,57.6615 -150.689,0 -301.44,-19.3441 -456.487,-58.03l5.33977 -21.7063 -5.42481 21.7406c-8.11418,-2.02441 -14.0811,-8.23701 -16.1717,-15.7583l-58.6784 -156.45 302.849 11.6126c7.87796,18.3815 32.5689,26.7343 103.22,38.8335 40.1327,6.87284 82.669,10.3087 125.353,10.3087 42.6839,0 85.2201,-3.43583 125.353,-10.3087 70.9524,-12.1512 95.5524,-20.524 103.322,-39.0697l302.836 -11.6114 -59.4449 158.492 -20.9173 -7.78938 20.9776 7.86969c-2.88898,7.70434 -9.56812,12.8799 -17.1295,14.2051z"/>
  <path class="fil9" d="M629.773 1139c-48.3449,-2.65394 -96.4158,-1.40433 -144.207,3.73111 -2.34095,0.0897638 -4.70906,0.549213 -7.02284,1.41614 -0.28937,0.108662 -0.575197,0.223229 -0.858662,0.341339 30.6945,7.50119 67.2308,13.6417 107.616,17.6303 73.1044,7.22008 143.488,5.87717 195.127,-2.09173 -1.13268,-0.448819 -2.31732,-0.811418 -3.54803,-1.07835l-0.011811 0.0200788c-49.1244,-10.6311 -98.1568,-17.2819 -147.095,-19.9689z"/>
  <path class="fil9" d="M1417.62 1137.86c-48.3272,2.95866 -95.9304,9.763 -142.806,20.3941 -2.31496,0.359055 -4.61339,1.08898 -6.81142,2.21811 -0.275197,0.141732 -0.54567,0.288189 -0.812599,0.43937 31.3559,3.89882 51.9201,6.05788 108.932,5.05867 57.0119,-0.999213 140.575,-8.75552 190.944,-22.6465 -1.17756,-0.314173 -2.39528,-0.537402 -3.64843,-0.659056l-0.00944883 0.0200788c-49.7256,-5.5193 -96.4453,-8.72481 -145.788,-4.82481z"/>
 </g>
</svg>
